<mxfile host="app.diagrams.net" agent="Mozilla/5.0 (X11; Linux x86_64) AppleWebKit/537.36 (KHTML, like Gecko) Chrome/130.0.0.0 Safari/537.36" version="24.7.17">
  <diagram name="Page-1" id="BF-N7P3xVQ1ct8htm8zQ">
    <mxGraphModel dx="667" dy="770" grid="1" gridSize="10" guides="1" tooltips="1" connect="1" arrows="1" fold="1" page="1" pageScale="1" pageWidth="827" pageHeight="1169" math="0" shadow="0">
      <root>
        <mxCell id="0" />
        <mxCell id="1" parent="0" />
        <mxCell id="tepPoc68Ynostsxfefrb-66" style="edgeStyle=orthogonalEdgeStyle;rounded=0;orthogonalLoop=1;jettySize=auto;html=1;exitX=1;exitY=0.5;exitDx=0;exitDy=0;endArrow=none;endFill=0;" parent="1" source="tepPoc68Ynostsxfefrb-40" edge="1">
          <mxGeometry relative="1" as="geometry">
            <mxPoint x="390" y="196" as="targetPoint" />
          </mxGeometry>
        </mxCell>
        <mxCell id="tepPoc68Ynostsxfefrb-40" value="Treatment effectiveness" style="rounded=1;whiteSpace=wrap;html=1;fillColor=none;strokeColor=none;" parent="1" vertex="1">
          <mxGeometry x="210" y="140" width="110" height="23.75" as="geometry" />
        </mxCell>
        <mxCell id="tepPoc68Ynostsxfefrb-49" style="edgeStyle=orthogonalEdgeStyle;rounded=0;orthogonalLoop=1;jettySize=auto;html=1;exitX=1;exitY=0.5;exitDx=0;exitDy=0;entryX=0;entryY=0.5;entryDx=0;entryDy=0;" parent="1" source="tepPoc68Ynostsxfefrb-46" target="tepPoc68Ynostsxfefrb-48" edge="1">
          <mxGeometry relative="1" as="geometry" />
        </mxCell>
        <mxCell id="tepPoc68Ynostsxfefrb-46" value="Adverse event OR" style="rounded=1;whiteSpace=wrap;html=1;fillColor=none;strokeColor=none;" parent="1" vertex="1">
          <mxGeometry x="80" y="89" width="110" height="30" as="geometry" />
        </mxCell>
        <mxCell id="tepPoc68Ynostsxfefrb-61" style="edgeStyle=orthogonalEdgeStyle;rounded=0;orthogonalLoop=1;jettySize=auto;html=1;exitX=1;exitY=0.5;exitDx=0;exitDy=0;endArrow=none;endFill=0;" parent="1" source="tepPoc68Ynostsxfefrb-48" edge="1">
          <mxGeometry relative="1" as="geometry">
            <mxPoint x="390" y="230" as="targetPoint" />
          </mxGeometry>
        </mxCell>
        <mxCell id="tepPoc68Ynostsxfefrb-48" value="Apply treatment effect to reference data" style="rounded=1;whiteSpace=wrap;html=1;fillColor=#b1ddf0;strokeColor=#10739e;" parent="1" vertex="1">
          <mxGeometry x="250" y="60" width="110" height="47.5" as="geometry" />
        </mxCell>
        <mxCell id="tepPoc68Ynostsxfefrb-64" style="edgeStyle=orthogonalEdgeStyle;rounded=0;orthogonalLoop=1;jettySize=auto;html=1;exitX=1;exitY=0.5;exitDx=0;exitDy=0;endArrow=none;endFill=0;" parent="1" source="tepPoc68Ynostsxfefrb-50" edge="1">
          <mxGeometry relative="1" as="geometry">
            <mxPoint x="360" y="350" as="targetPoint" />
            <Array as="points">
              <mxPoint x="360" y="370" />
            </Array>
          </mxGeometry>
        </mxCell>
        <mxCell id="tepPoc68Ynostsxfefrb-50" value="Resource use and costs" style="rounded=1;whiteSpace=wrap;html=1;fillColor=none;strokeColor=none;" parent="1" vertex="1">
          <mxGeometry x="237.5" y="350" width="85" height="40" as="geometry" />
        </mxCell>
        <mxCell id="tepPoc68Ynostsxfefrb-53" style="edgeStyle=orthogonalEdgeStyle;rounded=0;orthogonalLoop=1;jettySize=auto;html=1;exitX=1;exitY=0.5;exitDx=0;exitDy=0;entryX=0;entryY=0.5;entryDx=0;entryDy=0;" parent="1" source="tepPoc68Ynostsxfefrb-52" target="tepPoc68Ynostsxfefrb-50" edge="1">
          <mxGeometry relative="1" as="geometry" />
        </mxCell>
        <mxCell id="tepPoc68Ynostsxfefrb-55" style="edgeStyle=orthogonalEdgeStyle;rounded=0;orthogonalLoop=1;jettySize=auto;html=1;exitX=1;exitY=0.5;exitDx=0;exitDy=0;entryX=0;entryY=0.5;entryDx=0;entryDy=0;" parent="1" source="tepPoc68Ynostsxfefrb-52" target="tepPoc68Ynostsxfefrb-54" edge="1">
          <mxGeometry relative="1" as="geometry" />
        </mxCell>
        <mxCell id="tepPoc68Ynostsxfefrb-52" value="Search for economic evaluations" style="rounded=1;whiteSpace=wrap;html=1;fillColor=#b1ddf0;strokeColor=#10739e;" parent="1" vertex="1">
          <mxGeometry x="60" y="320" width="82.5" height="50" as="geometry" />
        </mxCell>
        <mxCell id="tepPoc68Ynostsxfefrb-63" style="edgeStyle=orthogonalEdgeStyle;rounded=0;orthogonalLoop=1;jettySize=auto;html=1;exitX=1;exitY=0.5;exitDx=0;exitDy=0;endArrow=none;endFill=0;" parent="1" source="tepPoc68Ynostsxfefrb-54" edge="1">
          <mxGeometry relative="1" as="geometry">
            <mxPoint x="360" y="350" as="targetPoint" />
          </mxGeometry>
        </mxCell>
        <mxCell id="tepPoc68Ynostsxfefrb-54" value="Utilities" style="rounded=1;whiteSpace=wrap;html=1;fillColor=none;strokeColor=none;" parent="1" vertex="1">
          <mxGeometry x="237.5" y="310" width="85" height="20" as="geometry" />
        </mxCell>
        <mxCell id="qmZS8MJZeq3f118Ixj7X-1" style="edgeStyle=orthogonalEdgeStyle;rounded=0;orthogonalLoop=1;jettySize=auto;html=1;exitX=1;exitY=0.5;exitDx=0;exitDy=0;entryX=0;entryY=0.5;entryDx=0;entryDy=0;" edge="1" parent="1" source="tepPoc68Ynostsxfefrb-56" target="tepPoc68Ynostsxfefrb-71">
          <mxGeometry relative="1" as="geometry" />
        </mxCell>
        <mxCell id="tepPoc68Ynostsxfefrb-56" value="State transition (Markov) model" style="rounded=1;whiteSpace=wrap;html=1;fillColor=#b1ddf0;strokeColor=#10739e;" parent="1" vertex="1">
          <mxGeometry x="430" y="146.25" width="120" height="40" as="geometry" />
        </mxCell>
        <mxCell id="qmZS8MJZeq3f118Ixj7X-3" style="edgeStyle=orthogonalEdgeStyle;rounded=0;orthogonalLoop=1;jettySize=auto;html=1;exitX=1;exitY=0.5;exitDx=0;exitDy=0;entryX=0;entryY=0.5;entryDx=0;entryDy=0;" edge="1" parent="1" source="tepPoc68Ynostsxfefrb-57" target="tepPoc68Ynostsxfefrb-71">
          <mxGeometry relative="1" as="geometry" />
        </mxCell>
        <mxCell id="tepPoc68Ynostsxfefrb-57" value="Partitioned survival model" style="rounded=1;whiteSpace=wrap;html=1;fillColor=#b1ddf0;strokeColor=#10739e;" parent="1" vertex="1">
          <mxGeometry x="430" y="206.25" width="120" height="40" as="geometry" />
        </mxCell>
        <mxCell id="tepPoc68Ynostsxfefrb-58" value="Costs, QALYs and ICERs for each treatment" style="rounded=0;whiteSpace=wrap;html=1;fillColor=none;strokeColor=none;" parent="1" vertex="1">
          <mxGeometry x="690" y="172.5" width="90" height="47.5" as="geometry" />
        </mxCell>
        <mxCell id="tepPoc68Ynostsxfefrb-67" value="" style="endArrow=classic;html=1;rounded=0;entryX=0;entryY=0.5;entryDx=0;entryDy=0;edgeStyle=orthogonalEdgeStyle;" parent="1" target="tepPoc68Ynostsxfefrb-56" edge="1">
          <mxGeometry width="50" height="50" relative="1" as="geometry">
            <mxPoint x="390" y="200" as="sourcePoint" />
            <mxPoint x="420" y="260" as="targetPoint" />
          </mxGeometry>
        </mxCell>
        <mxCell id="tepPoc68Ynostsxfefrb-68" value="" style="endArrow=classic;html=1;rounded=0;entryX=0;entryY=0.5;entryDx=0;entryDy=0;edgeStyle=orthogonalEdgeStyle;" parent="1" target="tepPoc68Ynostsxfefrb-57" edge="1">
          <mxGeometry width="50" height="50" relative="1" as="geometry">
            <mxPoint x="390" y="200" as="sourcePoint" />
            <mxPoint x="420" y="260" as="targetPoint" />
          </mxGeometry>
        </mxCell>
        <mxCell id="tepPoc68Ynostsxfefrb-70" style="edgeStyle=orthogonalEdgeStyle;rounded=0;orthogonalLoop=1;jettySize=auto;html=1;exitX=1;exitY=0.5;exitDx=0;exitDy=0;entryX=0;entryY=0.5;entryDx=0;entryDy=0;" parent="1" source="tepPoc68Ynostsxfefrb-69" target="tepPoc68Ynostsxfefrb-48" edge="1">
          <mxGeometry relative="1" as="geometry" />
        </mxCell>
        <mxCell id="tepPoc68Ynostsxfefrb-69" value="Reference curves" style="rounded=1;whiteSpace=wrap;html=1;fillColor=none;strokeColor=none;" parent="1" vertex="1">
          <mxGeometry x="80" y="48" width="110" height="40" as="geometry" />
        </mxCell>
        <mxCell id="qmZS8MJZeq3f118Ixj7X-4" style="edgeStyle=orthogonalEdgeStyle;rounded=0;orthogonalLoop=1;jettySize=auto;html=1;exitX=1;exitY=0.5;exitDx=0;exitDy=0;" edge="1" parent="1" source="tepPoc68Ynostsxfefrb-71" target="tepPoc68Ynostsxfefrb-58">
          <mxGeometry relative="1" as="geometry" />
        </mxCell>
        <mxCell id="tepPoc68Ynostsxfefrb-71" value="Severity modifier" style="rounded=1;whiteSpace=wrap;html=1;fillColor=#b1ddf0;strokeColor=#10739e;" parent="1" vertex="1">
          <mxGeometry x="590" y="176.25" width="70" height="40" as="geometry" />
        </mxCell>
        <mxCell id="qADQwhYDoin8g3qc9P1L-1" value="" style="endArrow=none;html=1;rounded=0;edgeStyle=orthogonalEdgeStyle;endFill=0;" parent="1" edge="1">
          <mxGeometry width="50" height="50" relative="1" as="geometry">
            <mxPoint x="360" y="320" as="sourcePoint" />
            <mxPoint x="390" y="230" as="targetPoint" />
          </mxGeometry>
        </mxCell>
        <mxCell id="JkrAwTRT8f9iOs_yHDa7-3" style="edgeStyle=orthogonalEdgeStyle;rounded=0;orthogonalLoop=1;jettySize=auto;html=1;exitX=1;exitY=0.5;exitDx=0;exitDy=0;endArrow=none;endFill=0;" parent="1" source="JkrAwTRT8f9iOs_yHDa7-2" edge="1">
          <mxGeometry relative="1" as="geometry">
            <mxPoint x="360" y="320" as="targetPoint" />
          </mxGeometry>
        </mxCell>
        <mxCell id="JkrAwTRT8f9iOs_yHDa7-2" value="Proportion of people receiving each treatment in practice" style="rounded=1;whiteSpace=wrap;html=1;fillColor=none;strokeColor=none;" parent="1" vertex="1">
          <mxGeometry x="170" y="246.25" width="170" height="50" as="geometry" />
        </mxCell>
        <mxCell id="JkrAwTRT8f9iOs_yHDa7-6" style="edgeStyle=orthogonalEdgeStyle;rounded=0;orthogonalLoop=1;jettySize=auto;html=1;exitX=0.5;exitY=1;exitDx=0;exitDy=0;" parent="1" source="tepPoc68Ynostsxfefrb-40" target="tepPoc68Ynostsxfefrb-40" edge="1">
          <mxGeometry relative="1" as="geometry" />
        </mxCell>
        <mxCell id="JkrAwTRT8f9iOs_yHDa7-8" style="edgeStyle=orthogonalEdgeStyle;rounded=0;orthogonalLoop=1;jettySize=auto;html=1;exitX=1;exitY=0.5;exitDx=0;exitDy=0;endArrow=none;endFill=0;" parent="1" source="JkrAwTRT8f9iOs_yHDa7-7" edge="1">
          <mxGeometry relative="1" as="geometry">
            <mxPoint x="390" y="208" as="targetPoint" />
          </mxGeometry>
        </mxCell>
        <mxCell id="JkrAwTRT8f9iOs_yHDa7-7" value="Possible treatment sequences" style="rounded=1;whiteSpace=wrap;html=1;fillColor=none;strokeColor=none;" parent="1" vertex="1">
          <mxGeometry x="210" y="196.25" width="110" height="23.75" as="geometry" />
        </mxCell>
        <mxCell id="JkrAwTRT8f9iOs_yHDa7-10" style="edgeStyle=orthogonalEdgeStyle;rounded=0;orthogonalLoop=1;jettySize=auto;html=1;exitX=1;exitY=0.5;exitDx=0;exitDy=0;entryX=0;entryY=0.5;entryDx=0;entryDy=0;" parent="1" source="JkrAwTRT8f9iOs_yHDa7-9" target="JkrAwTRT8f9iOs_yHDa7-7" edge="1">
          <mxGeometry relative="1" as="geometry" />
        </mxCell>
        <mxCell id="JkrAwTRT8f9iOs_yHDa7-9" value="Clinical advice and routine commissioning rules" style="rounded=1;whiteSpace=wrap;html=1;fillColor=none;strokeColor=none;" parent="1" vertex="1">
          <mxGeometry x="26.25" y="196.25" width="150" height="23.75" as="geometry" />
        </mxCell>
      </root>
    </mxGraphModel>
  </diagram>
</mxfile>
